# Blender v2.93.3 OBJ File: ''
# www.blender.org
mtllib Door.mtl
o Cube
v 0.000000 2.998953 -4.572553
v 0.000000 -2.998953 -4.572553
v 0.000000 2.998953 4.572553
v 0.000000 -2.998953 4.572553
v -1.000000 2.998953 -4.572553
v -1.000000 -2.998953 -4.572553
v -1.000000 2.998953 4.572553
v -1.000000 -2.998953 4.572553
vt 0.933315 0.000000
vt 0.866629 0.609844
vt 0.866629 0.000000
vt 1.000000 0.799944
vt 0.933315 0.399972
vt 1.000000 0.399972
vt 0.399972 0.609844
vt 0.799944 0.000000
vt 0.799944 0.609844
vt 0.866629 0.000000
vt 0.000000 0.609844
vt 0.399972 0.000000
vt 0.399972 0.609844
vt 1.000000 0.399972
vt 0.933315 0.000000
vt 1.000000 0.000000
vt 0.933315 0.609844
vt 0.933315 0.799944
vt 0.399972 0.000000
vt 0.866629 0.609844
vt 0.000000 0.000000
vt 0.933315 0.399972
vn 0.0000 1.0000 0.0000
vn 0.0000 0.0000 1.0000
vn -1.0000 0.0000 0.0000
vn 0.0000 -1.0000 0.0000
vn 1.0000 0.0000 0.0000
vn 0.0000 0.0000 -1.0000
usemtl Material
s off
f 5/1/1 3/2/1 1/3/1
f 3/4/2 8/5/2 4/6/2
f 7/7/3 6/8/3 8/9/3
f 2/10/4 8/9/4 6/8/4
f 1/11/5 4/12/5 2/13/5
f 5/14/6 2/15/6 6/16/6
f 5/1/1 7/17/1 3/2/1
f 3/4/2 7/18/2 8/5/2
f 7/7/3 5/19/3 6/8/3
f 2/10/4 4/20/4 8/9/4
f 1/11/5 3/21/5 4/12/5
f 5/14/6 1/22/6 2/15/6
